<svg width="14" height="10" viewBox="0 0 14 10" fill="none" xmlns="http://www.w3.org/2000/svg">
<g id="fluent:ios-arrow-24-regular">
<path id="Vector" d="M11.494 5L6.54032 1.36375C6.49953 1.33445 6.46729 1.29966 6.44545 1.2614C6.42362 1.22313 6.41262 1.18216 6.4131 1.14084C6.41358 1.09952 6.42553 1.05868 6.44825 1.02068C6.47098 0.98268 6.50402 0.948277 6.54549 0.919461C6.58695 0.890646 6.63599 0.867989 6.68979 0.852803C6.74359 0.837617 6.80108 0.830203 6.85891 0.830989C6.91675 0.831776 6.9738 0.840748 7.02675 0.857386C7.0797 0.874023 7.12751 0.897997 7.1674 0.927919L12.4174 4.78209C12.4969 4.84043 12.5413 4.91861 12.5413 5C12.5413 5.0814 12.4969 5.15958 12.4174 5.21792L7.1674 9.07209C7.12751 9.10201 7.0797 9.12598 7.02675 9.14262C6.9738 9.15926 6.91675 9.16823 6.85891 9.16902C6.80108 9.1698 6.74359 9.16239 6.68979 9.1472C6.63599 9.13202 6.58695 9.10936 6.54549 9.08054C6.50402 9.05173 6.47098 9.01733 6.44825 8.97933C6.42553 8.94133 6.41358 8.90049 6.4131 8.85917C6.41262 8.81785 6.42362 8.77687 6.44545 8.73861C6.46729 8.70035 6.49953 8.66556 6.54032 8.63625L11.494 5Z" fill="#898989"/>
</g>
</svg>
