<svg width="23" height="15" viewBox="0 0 23 15" fill="none" xmlns="http://www.w3.org/2000/svg">
<g id="ep:arrow-right-bold">
<path id="Vector" d="M7.60875 1.53375C7.33926 1.70956 7.18787 1.94797 7.18787 2.19656C7.18787 2.44515 7.33926 2.68357 7.60875 2.85938L14.7244 7.5L7.60875 12.1406C7.34689 12.3174 7.202 12.5543 7.20528 12.8001C7.20855 13.0459 7.35973 13.281 7.62626 13.4548C7.89278 13.6287 8.25332 13.7272 8.63023 13.7294C9.00714 13.7315 9.37026 13.637 9.64137 13.4663L17.7733 8.16281C18.0428 7.98701 18.1942 7.74859 18.1942 7.5C18.1942 7.25141 18.0428 7.013 17.7733 6.83719L9.64137 1.53375C9.3718 1.358 9.00623 1.25926 8.62506 1.25926C8.24389 1.25926 7.87832 1.358 7.60875 1.53375Z" fill="#00008B"/>
</g>
</svg>
