<svg width="40" height="42" viewBox="0 0 40 42" fill="none" xmlns="http://www.w3.org/2000/svg">
<path id="Vector" d="M0 20.7031C0 32.1366 8.95481 41.4062 20 41.4062C31.0452 41.4062 40 32.1366 40 20.7031C40 9.26963 31.0452 0 20 0C8.95481 0 0 9.26963 0 20.7031ZM20.4471 11.6097C20.5906 11.757 20.7046 11.9321 20.7827 12.125C20.8608 12.3179 20.9014 12.5249 20.9022 12.734C20.903 12.9432 20.864 13.1505 20.7874 13.3441C20.7108 13.5376 20.5981 13.7137 20.4558 13.8621L15.425 19.1106H28.2692C28.6773 19.1106 29.0686 19.2784 29.3571 19.577C29.6456 19.8757 29.8077 20.2808 29.8077 20.7031C29.8077 21.1255 29.6456 21.5306 29.3571 21.8292C29.0686 22.1279 28.6773 22.2957 28.2692 22.2957H15.425L20.4558 27.5441C20.5981 27.6927 20.7107 27.8689 20.7872 28.0626C20.8638 28.2563 20.9027 28.4637 20.9018 28.6729C20.9009 28.8822 20.8602 29.0892 20.782 29.2822C20.7039 29.4751 20.5897 29.6503 20.4462 29.7976C20.3026 29.9449 20.1324 30.0615 19.9453 30.1407C19.7582 30.2199 19.5578 30.2602 19.3557 30.2593C19.1536 30.2584 18.9536 30.2162 18.7671 30.1353C18.5807 30.0544 18.4115 29.9362 18.2692 29.7876L10.6356 21.8249C10.3496 21.5266 10.1892 21.1234 10.1892 20.7031C10.1892 20.2829 10.3496 19.8797 10.6356 19.5814L18.2692 11.6186C18.4116 11.4698 18.5808 11.3515 18.7674 11.2705C18.9539 11.1895 19.1541 11.1474 19.3564 11.1466C19.5587 11.1457 19.7591 11.1862 19.9463 11.2657C20.1335 11.3451 20.3036 11.462 20.4471 11.6097Z" fill="#AAAAAA"/>
</svg>
