<svg width="34" height="32" viewBox="0 0 34 32" fill="none" xmlns="http://www.w3.org/2000/svg">
<g id="Group">
<path id="Vector" d="M30.0909 1H3.90909C2.30244 1 1 2.03319 1 3.30769V25.2308C1 26.5053 2.30244 27.5385 3.90909 27.5385H30.0909C31.6976 27.5385 33 26.5053 33 25.2308V3.30769C33 2.03319 31.6976 1 30.0909 1Z" stroke="#898989" stroke-width="2" stroke-linecap="round" stroke-linejoin="round"/>
<path id="Vector_2" d="M6.81818 27.5385V31M27.1818 27.5385V31M1 16H33" stroke="#898989" stroke-width="2" stroke-linecap="round" stroke-linejoin="round"/>
<path id="Vector_3" d="M8.27272 22.923C9.07605 22.923 9.72727 22.4065 9.72727 21.7692C9.72727 21.132 9.07605 20.6154 8.27272 20.6154C7.4694 20.6154 6.81818 21.132 6.81818 21.7692C6.81818 22.4065 7.4694 22.923 8.27272 22.923Z" stroke="#898989" stroke-width="2" stroke-linecap="round" stroke-linejoin="round"/>
<path id="Vector_4" d="M25.7273 22.923C26.5306 22.923 27.1818 22.4065 27.1818 21.7692C27.1818 21.132 26.5306 20.6154 25.7273 20.6154C24.924 20.6154 24.2727 21.132 24.2727 21.7692C24.2727 22.4065 24.924 22.923 25.7273 22.923Z" stroke="#898989" stroke-width="2" stroke-linecap="round" stroke-linejoin="round"/>
</g>
</svg>
