<svg width="32" height="30" viewBox="0 0 32 30" fill="none" xmlns="http://www.w3.org/2000/svg">
<path id="Vector" d="M2.90909 15C1.30909 15 0 13.5 0 11.6667V3.33333C0 1.5 1.30909 0 2.90909 0H14.5455C16.1455 0 17.4545 1.5 17.4545 3.33333V11.6667C17.4545 13.5 16.1455 15 14.5455 15H11.6364V20L7.27273 15H2.90909ZM29.0909 25C30.6909 25 32 23.5 32 21.6667V13.3333C32 11.5 30.6909 10 29.0909 10H20.3636V11.6667C20.3636 15.3333 17.7455 18.3333 14.5455 18.3333V21.6667C14.5455 23.5 15.8545 25 17.4545 25H20.3636V30L24.7273 25H29.0909Z" fill="#898989"/>
</svg>
