<svg width="32" height="31" viewBox="0 0 32 31" fill="none" xmlns="http://www.w3.org/2000/svg">
<g id="Group">
<path id="Vector" d="M1.45455 7.316V5.737C1.06878 5.737 0.698807 5.90336 0.426026 6.19948C0.153246 6.4956 0 6.89722 0 7.316H1.45455ZM17.4545 7.316H18.9091C18.9091 6.89722 18.7558 6.4956 18.4831 6.19948C18.2103 5.90336 17.8403 5.737 17.4545 5.737V7.316ZM17.4545 10.474V8.895C17.0688 8.895 16.6988 9.06136 16.426 9.35748C16.1532 9.6536 16 10.0552 16 10.474H17.4545ZM1.45455 8.895H17.4545V5.737H1.45455V8.895ZM16 7.316V26.264H18.9091V7.316H16ZM2.90909 23.106V7.316H0V23.106H2.90909ZM17.4545 12.053H24.7273V8.895H17.4545V12.053ZM29.0909 16.79V23.106H32V16.79H29.0909ZM18.9091 26.264V10.474H16V26.264H18.9091ZM25.7556 27.3804C25.4829 27.6764 25.113 27.8427 24.7273 27.8427C24.3416 27.8427 23.9717 27.6764 23.6989 27.3804L21.6422 29.6131C22.4605 30.5011 23.5702 31 24.7273 31C25.8844 31 26.9941 30.5011 27.8124 29.6131L25.7556 27.3804ZM23.6989 25.1477C23.9717 24.8516 24.3416 24.6853 24.7273 24.6853C25.113 24.6853 25.4829 24.8516 25.7556 25.1477L27.8124 22.9149C26.9941 22.0269 25.8844 21.528 24.7273 21.528C23.5702 21.528 22.4605 22.0269 21.6422 22.9149L23.6989 25.1477ZM8.30109 27.3804C8.02832 27.6764 7.65842 27.8427 7.27273 27.8427C6.88703 27.8427 6.51713 27.6764 6.24436 27.3804L4.18764 29.6131C5.00594 30.5011 6.11565 31 7.27273 31C8.42981 31 9.53952 30.5011 10.3578 29.6131L8.30109 27.3804ZM6.24436 25.1477C6.51713 24.8516 6.88703 24.6853 7.27273 24.6853C7.65842 24.6853 8.02832 24.8516 8.30109 25.1477L10.3578 22.9149C9.53952 22.0269 8.42981 21.528 7.27273 21.528C6.11565 21.528 5.00594 22.0269 4.18764 22.9149L6.24436 25.1477ZM25.7556 25.1477C26.0407 25.4556 26.1818 25.8582 26.1818 26.264H29.0909C29.0909 25.0545 28.6647 23.8387 27.8124 22.9149L25.7556 25.1477ZM26.1818 26.264C26.1823 26.4714 26.1448 26.6769 26.0717 26.8685C25.9985 27.0601 25.8911 27.2341 25.7556 27.3804L27.8124 29.6131C28.218 29.1736 28.5397 28.6516 28.7591 28.0769C28.9785 27.5022 29.0913 26.8861 29.0909 26.264H26.1818ZM21.8182 24.685H17.4545V27.843H21.8182V24.685ZM23.6989 27.3804C23.5634 27.2341 23.456 27.0601 23.3829 26.8685C23.3097 26.6769 23.2723 26.4714 23.2727 26.264H20.3636C20.3636 27.4735 20.7898 28.6894 21.6422 29.6131L23.6989 27.3804ZM23.2727 26.264C23.272 26.0565 23.3093 25.851 23.3824 25.6593C23.4556 25.4677 23.5632 25.2937 23.6989 25.1477L21.6422 22.9149C21.2366 23.3544 20.9148 23.8765 20.6954 24.4512C20.476 25.0259 20.3633 25.6419 20.3636 26.264H23.2727ZM6.24436 27.3804C6.1089 27.2341 6.00149 27.0601 5.92834 26.8685C5.85518 26.6769 5.81774 26.4714 5.81818 26.264H2.90909C2.90909 27.4735 3.33527 28.6894 4.18764 29.6131L6.24436 27.3804ZM5.81818 26.264C5.81742 26.0565 5.85471 25.851 5.92788 25.6593C6.00105 25.4677 6.10864 25.2937 6.24436 25.1477L4.18764 22.9149C3.78202 23.3544 3.46029 23.8765 3.24089 24.4512C3.02149 25.0259 2.90874 25.6419 2.90909 26.264H5.81818ZM17.4545 24.685H10.1818V27.843H17.4545V24.685ZM8.30109 25.1477C8.58618 25.4556 8.72727 25.8582 8.72727 26.264H11.6364C11.6364 25.0545 11.2102 23.8387 10.3578 22.9149L8.30109 25.1477ZM8.72727 26.264C8.72771 26.4714 8.69027 26.6769 8.61712 26.8685C8.54397 27.0601 8.43655 27.2341 8.30109 27.3804L10.3578 29.6131C10.7634 29.1736 11.0852 28.6516 11.3046 28.0769C11.524 27.5022 11.6367 26.8861 11.6364 26.264H8.72727ZM29.0909 23.106C29.0909 23.5248 28.9377 23.9264 28.6649 24.2225C28.3921 24.5187 28.0221 24.685 27.6364 24.685V27.843C28.7937 27.843 29.9036 27.3439 30.7219 26.4556C31.5403 25.5672 32 24.3623 32 23.106H29.0909ZM24.7273 12.053C25.8846 12.053 26.9945 12.5521 27.8128 13.4404C28.6312 14.3288 29.0909 15.5337 29.0909 16.79H32C32 15.7532 31.8119 14.7266 31.4464 13.7687C31.0809 12.8109 30.5452 11.9405 29.8699 11.2074C29.1945 10.4743 28.3928 9.89273 27.5104 9.49597C26.6281 9.09921 25.6823 8.895 24.7273 8.895V12.053ZM0 23.106C0 24.3623 0.459739 25.5672 1.27808 26.4556C2.09642 27.3439 3.20633 27.843 4.36364 27.843V24.685C3.97787 24.685 3.6079 24.5187 3.33512 24.2225C3.06234 23.9264 2.90909 23.5248 2.90909 23.106H0Z" fill="#898989"/>
<path id="Vector_2" d="M9.45455 5.737C9.45455 4.48067 8.99481 3.2758 8.17647 2.38744C7.35813 1.49908 6.24822 1 5.09091 1C4.70514 1 4.33517 1.16636 4.06239 1.46248C3.78961 1.7586 3.63636 2.16022 3.63636 2.579C3.63636 3.83533 4.0961 5.04021 4.91444 5.92857C5.73278 6.81693 6.84269 7.316 8 7.316H9.45455M9.45455 5.737V7.316M9.45455 5.737C9.45455 4.48067 9.91428 3.2758 10.7326 2.38744C11.551 1.49908 12.6609 1 13.8182 1C14.204 1 14.5739 1.16636 14.8467 1.46248C15.1195 1.7586 15.2727 2.16022 15.2727 2.579C15.2727 3.83533 14.813 5.04021 13.9946 5.92857C13.1763 6.81693 12.0664 7.316 10.9091 7.316H9.45455" stroke="#898989" stroke-width="2" stroke-linejoin="round"/>
</g>
</svg>
