<svg width="32" height="31" viewBox="0 0 32 31" fill="none" xmlns="http://www.w3.org/2000/svg">
<g id="mingcute:government-line" clip-path="url(#clip0_11_89)">
<g id="Group">
<path id="Vector" d="M28.0002 9.27997C28.3401 9.28032 28.6669 9.40232 28.9141 9.62103C29.1612 9.83974 29.3099 10.1387 29.3298 10.4567C29.3497 10.7748 29.2393 11.0879 29.0212 11.3323C28.8031 11.5766 28.4937 11.7336 28.1562 11.7712L28.0002 11.78V24.28C28.3401 24.2803 28.6669 24.4023 28.9141 24.621C29.1612 24.8397 29.3099 25.1387 29.3298 25.4567C29.3497 25.7748 29.2393 26.0879 29.0212 26.3323C28.8031 26.5766 28.4937 26.7336 28.1562 26.7712L28.0002 26.78H4.00024C3.6604 26.7796 3.33353 26.6576 3.08641 26.4389C2.8393 26.2202 2.69059 25.9213 2.67067 25.6032C2.65076 25.2852 2.76114 24.972 2.97926 24.7277C3.19738 24.4834 3.50678 24.3263 3.84424 24.2887L4.00024 24.28V11.78C3.6604 11.7796 3.33353 11.6576 3.08641 11.4389C2.8393 11.2202 2.69059 10.9213 2.67067 10.6032C2.65076 10.2852 2.76114 9.97199 2.97926 9.72768C3.19738 9.48336 3.50678 9.32635 3.84424 9.28872L4.00024 9.27997H28.0002ZM25.3336 11.78H6.6669V24.28H9.33357V15.53C9.33357 15.1984 9.47405 14.8805 9.7241 14.6461C9.97414 14.4117 10.3133 14.28 10.6669 14.28C11.0205 14.28 11.3597 14.4117 11.6097 14.6461C11.8598 14.8805 12.0002 15.1984 12.0002 15.53V24.28H14.6669V15.53C14.6669 15.1984 14.8074 14.8805 15.0574 14.6461C15.3075 14.4117 15.6466 14.28 16.0002 14.28C16.3539 14.28 16.693 14.4117 16.943 14.6461C17.1931 14.8805 17.3336 15.1984 17.3336 15.53V24.28H20.0002V15.53C20.0002 15.1984 20.1407 14.8805 20.3908 14.6461C20.6408 14.4117 20.9799 14.28 21.3336 14.28C21.6872 14.28 22.0263 14.4117 22.2764 14.6461C22.5264 14.8805 22.6669 15.1984 22.6669 15.53V24.28H25.3336V11.78ZM24.0002 5.52997C24.3539 5.52997 24.693 5.66166 24.943 5.89609C25.1931 6.13051 25.3336 6.44845 25.3336 6.77997C25.3336 7.11149 25.1931 7.42943 24.943 7.66385C24.693 7.89827 24.3539 8.02997 24.0002 8.02997H8.00024C7.64661 8.02997 7.30748 7.89827 7.05743 7.66385C6.80738 7.42943 6.6669 7.11149 6.6669 6.77997C6.6669 6.44845 6.80738 6.13051 7.05743 5.89609C7.30748 5.66166 7.64661 5.52997 8.00024 5.52997H24.0002Z" fill="#898989"/>
</g>
</g>
<defs>
<clipPath id="clip0_11_89">
<rect width="32" height="30" fill="white" transform="translate(0.000244141 0.529968)"/>
</clipPath>
</defs>
</svg>
