<svg width="32" height="30" viewBox="0 0 32 30" fill="none" xmlns="http://www.w3.org/2000/svg">
<path id="Vector" d="M0 3.375C0 2.47989 0.474106 1.62145 1.31802 0.988515C2.16193 0.355579 3.30653 0 4.5 0H27.5C28.0909 0 28.6761 0.087297 29.2221 0.256907C29.768 0.426516 30.2641 0.675117 30.682 0.988515C31.0998 1.30191 31.4313 1.67397 31.6575 2.08344C31.8836 2.49292 32 2.93179 32 3.375V13.125C32 13.5682 31.8836 14.0071 31.6575 14.4166C31.4313 14.826 31.0998 15.1981 30.682 15.5115C30.2641 15.8249 29.768 16.0735 29.2221 16.2431C28.6761 16.4127 28.0909 16.5 27.5 16.5H21V27.75H24.5C24.8978 27.75 25.2794 27.8685 25.5607 28.0795C25.842 28.2905 26 28.5766 26 28.875C26 29.1734 25.842 29.4595 25.5607 29.6705C25.2794 29.8815 24.8978 30 24.5 30H7.5C7.10218 30 6.72064 29.8815 6.43934 29.6705C6.15804 29.4595 6 29.1734 6 28.875C6 28.5766 6.15804 28.2905 6.43934 28.0795C6.72064 27.8685 7.10218 27.75 7.5 27.75H11V16.5H4.5C3.30653 16.5 2.16193 16.1444 1.31802 15.5115C0.474106 14.8786 0 14.0201 0 13.125V3.375ZM14 16.5V27.75H18V16.5H14ZM4.5 2.25C4.10218 2.25 3.72064 2.36853 3.43934 2.5795C3.15804 2.79048 3 3.07663 3 3.375V13.125C3 13.746 3.672 14.25 4.5 14.25H27.5C27.8978 14.25 28.2794 14.1315 28.5607 13.9205C28.842 13.7095 29 13.4234 29 13.125V3.375C29 3.07663 28.842 2.79048 28.5607 2.5795C28.2794 2.36853 27.8978 2.25 27.5 2.25H4.5Z" fill="#898989"/>
</svg>
