<svg width="45" height="43" viewBox="0 0 45 43" fill="none" xmlns="http://www.w3.org/2000/svg">
<g id="material-symbols:search">
<path id="Vector" d="M36.75 37.625L24.9375 26.3375C24 27.0542 22.9219 27.6215 21.7031 28.0396C20.4844 28.4576 19.1875 28.6667 17.8125 28.6667C14.4062 28.6667 11.5237 27.5391 9.165 25.284C6.80625 23.0289 5.62625 20.2745 5.625 17.0208C5.625 13.766 6.805 11.0116 9.165 8.75767C11.525 6.50375 14.4075 5.37619 17.8125 5.375C21.2188 5.375 24.1013 6.50256 26.46 8.75767C28.8188 11.0128 29.9988 13.7672 30 17.0208C30 18.3347 29.7812 19.574 29.3438 20.7385C28.9062 21.9031 28.3125 22.9333 27.5625 23.8292L39.375 35.1167L36.75 37.625ZM17.8125 25.0833C20.1562 25.0833 22.1488 24.2992 23.79 22.7309C25.4312 21.1626 26.2512 19.2592 26.25 17.0208C26.25 14.7812 25.4294 12.8773 23.7881 11.309C22.1469 9.74069 20.155 8.95714 17.8125 8.95833C15.4688 8.95833 13.4762 9.74249 11.835 11.3108C10.1937 12.8791 9.37375 14.7824 9.375 17.0208C9.375 19.2604 10.1956 21.1644 11.8369 22.7327C13.4781 24.301 15.47 25.0845 17.8125 25.0833Z" fill="#00008B"/>
</g>
</svg>
