<svg width="32" height="30" viewBox="0 0 32 30" fill="none" xmlns="http://www.w3.org/2000/svg">
<path id="Vector" fill-rule="evenodd" clip-rule="evenodd" d="M15.9226 0H16.0774C17.4154 0 18.5302 6.2377e-08 19.4143 0.111628C20.349 0.228837 21.1929 0.488372 21.8701 1.12326C22.5488 1.75953 22.8257 2.5507 22.9507 3.42558C23.04 4.03953 23.0623 4.7707 23.0683 5.61628C24.0327 5.64558 24.893 5.7 25.658 5.79488C27.4024 6.01535 28.8149 6.4786 29.9297 7.52233C31.043 8.56744 31.5371 9.89163 31.7723 11.527C32 13.1177 32 15.1479 32 17.7126V17.8688C32 20.4335 32 22.4651 31.7723 24.0544C31.5371 25.6898 31.043 27.014 29.9297 28.0591C28.8149 29.1028 27.4024 29.566 25.658 29.7865C23.9613 30 21.7957 30 19.0601 30H12.9399C10.2043 30 8.03721 30 6.34195 29.7865C4.59758 29.566 3.18512 29.1028 2.07033 28.0591C0.957023 27.014 0.462884 25.6898 0.227721 24.0544C0 22.4637 0 20.4335 0 17.8688V17.7126C0 15.1479 0 13.1163 0.227721 11.527C0.462884 9.89163 0.957023 8.56744 2.07033 7.52233C3.18512 6.4786 4.59758 6.01535 6.34195 5.79488C7.20151 5.69511 8.06584 5.6355 8.93172 5.61628C8.93767 4.7707 8.96149 4.03953 9.0493 3.42558C9.17432 2.5507 9.45116 1.75953 10.1284 1.12326C10.8071 0.488372 11.651 0.230233 12.5842 0.111628C13.4698 6.2377e-08 14.586 0 15.9226 0ZM11.1658 5.58419C11.7284 5.5814 12.3193 5.5814 12.9399 5.5814H19.0601C19.6807 5.5814 20.2716 5.5814 20.8342 5.58419C20.8283 4.78884 20.8074 4.18884 20.739 3.70465C20.6452 3.0614 20.486 2.78512 20.2925 2.60372C20.099 2.42233 19.8043 2.27302 19.1167 2.18512C18.3993 2.09581 17.4348 2.09302 16 2.09302C14.5652 2.09302 13.6007 2.09581 12.8819 2.18651C12.1957 2.27302 11.901 2.42233 11.7075 2.60512C11.514 2.78651 11.3548 3.0614 11.261 3.70465C11.1926 4.18744 11.1717 4.78744 11.1658 5.58419ZM6.63814 7.86977C5.14084 8.05814 4.27758 8.41256 3.64651 9.00279C3.01842 9.59302 2.64037 10.4023 2.43944 11.806C2.23405 13.2391 2.23107 15.1298 2.23107 17.7907C2.23107 20.4516 2.23405 22.3423 2.43944 23.7767C2.64037 25.1791 3.01842 25.9884 3.648 26.5786C4.27758 27.1688 5.14084 27.5233 6.63814 27.7116C8.16819 27.9042 10.1834 27.907 13.0218 27.907H18.9753C21.8136 27.907 23.8303 27.9042 25.3604 27.7116C26.8562 27.5233 27.7194 27.1688 28.349 26.5786C28.9786 25.9884 29.3566 25.1791 29.5576 23.7753C29.763 22.3423 29.766 20.4516 29.766 17.7907C29.766 15.1298 29.763 13.2405 29.5576 11.8047C29.3566 10.4023 28.9786 9.59302 28.349 9.00279C27.7194 8.41256 26.8562 8.05814 25.3589 7.86977C23.8303 7.67721 21.8136 7.67442 18.9753 7.67442H13.0218C10.1834 7.67442 8.16967 7.67721 6.63814 7.86977ZM16 11.1628C16.2961 11.1628 16.58 11.273 16.7893 11.4693C16.9987 11.6656 17.1163 11.9317 17.1163 12.2093V12.2233C18.7371 12.6056 20.093 13.8042 20.093 15.4647C20.093 15.7422 19.9754 16.0084 19.7661 16.2046C19.5567 16.4009 19.2728 16.5112 18.9767 16.5112C18.6807 16.5112 18.3968 16.4009 18.1874 16.2046C17.9781 16.0084 17.8605 15.7422 17.8605 15.4647C17.8605 14.9288 17.2264 14.1865 16 14.1865C14.7736 14.1865 14.1395 14.9288 14.1395 15.4647C14.1395 16.0005 14.7736 16.7442 16 16.7442C18.0614 16.7442 20.093 18.0837 20.093 20.1167C20.093 21.7772 18.7371 22.9744 17.1163 23.3581V23.3721C17.1163 23.6496 16.9987 23.9158 16.7893 24.1121C16.58 24.3083 16.2961 24.4186 16 24.4186C15.7039 24.4186 15.42 24.3083 15.2107 24.1121C15.0013 23.9158 14.8837 23.6496 14.8837 23.3721V23.3581C13.2629 22.9758 11.907 21.7772 11.907 20.1167C11.907 19.8392 12.0246 19.573 12.2339 19.3767C12.4433 19.1805 12.7272 19.0702 13.0233 19.0702C13.3193 19.0702 13.6032 19.1805 13.8126 19.3767C14.0219 19.573 14.1395 19.8392 14.1395 20.1167C14.1395 20.6526 14.7736 21.3949 16 21.3949C17.2264 21.3949 17.8605 20.6526 17.8605 20.1167C17.8605 19.5809 17.2264 18.8372 16 18.8372C13.9386 18.8372 11.907 17.4977 11.907 15.4647C11.907 13.8042 13.2629 12.6056 14.8837 12.2233V12.2093C14.8837 11.9317 15.0013 11.6656 15.2107 11.4693C15.42 11.273 15.7039 11.1628 16 11.1628Z" fill="#898989"/>
</svg>
