<svg width="40" height="42" viewBox="0 0 40 42" fill="none" xmlns="http://www.w3.org/2000/svg">
<path id="Vector" d="M40 20.7031C40 9.26962 31.0452 -1.43051e-06 20 -1.43051e-06C8.95481 -1.43051e-06 -7.15256e-07 9.26962 -7.15256e-07 20.7031C-7.15256e-07 32.1366 8.95481 41.4062 20 41.4062C31.0452 41.4062 40 32.1366 40 20.7031ZM19.5529 29.7966C19.4094 29.6493 19.2954 29.4742 19.2173 29.2812C19.1392 29.0883 19.0986 28.8814 19.0978 28.6722C19.097 28.463 19.136 28.2557 19.2126 28.0622C19.2892 27.8686 19.4019 27.6926 19.5442 27.5441L24.575 22.2957H11.7308C11.3227 22.2957 10.9314 22.1279 10.6429 21.8292C10.3544 21.5306 10.1923 21.1255 10.1923 20.7031C10.1923 20.2808 10.3544 19.8757 10.6429 19.577C10.9314 19.2784 11.3227 19.1106 11.7308 19.1106H24.575L19.5442 13.8621C19.4019 13.7135 19.2893 13.5373 19.2128 13.3437C19.1362 13.15 19.0973 12.9426 19.0982 12.7333C19.0991 12.5241 19.1398 12.3171 19.218 12.1241C19.2961 11.9311 19.4103 11.756 19.5538 11.6087C19.6974 11.4614 19.8676 11.3448 20.0547 11.2655C20.2418 11.1863 20.4422 11.146 20.6443 11.1469C20.8464 11.1479 21.0464 11.19 21.2329 11.2709C21.4193 11.3519 21.5885 11.47 21.7308 11.6186L29.3644 19.5814C29.6504 19.8797 29.8108 20.2829 29.8108 20.7031C29.8108 21.1234 29.6504 21.5266 29.3644 21.8249L21.7308 29.7876C21.5884 29.9364 21.4192 30.0547 21.2326 30.1357C21.0461 30.2167 20.8459 30.2588 20.6436 30.2597C20.4413 30.2605 20.2409 30.22 20.0537 30.1406C19.8665 30.0611 19.6964 29.9442 19.5529 29.7966Z" fill="#AAAAAA"/>
</svg>
