<svg width="32" height="31" viewBox="0 0 32 31" fill="none" xmlns="http://www.w3.org/2000/svg">
<g id="fluent-mdl2:reservation-orders" clip-path="url(#clip0_11_87)">
<path id="Vector" d="M14.0002 8.02997V9.90497H8.00024V8.02997H14.0002ZM8.00024 13.655V11.78H14.0002V13.655H8.00024ZM8.00024 17.405V15.53H12.0002V17.405H8.00024ZM6.00024 8.02997V9.90497H4.00024V8.02997H6.00024ZM6.00024 11.78V13.655H4.00024V11.78H6.00024ZM4.00024 17.405V15.53H6.00024V17.405H4.00024ZM2.00024 2.40497V28.655H12.0002V30.53H0.000244141V0.529968H17.4221L26.0002 8.57196V11.78H24.0002V9.90497H16.0002V2.40497H2.00024ZM18.0002 3.73798V8.02997H22.5784L18.0002 3.73798ZM28.0002 15.53H32.0002V30.53H14.0002V15.53H18.0002V13.655H20.0002V15.53H26.0002V13.655H28.0002V15.53ZM30.0002 28.655V21.155H16.0002V28.655H30.0002ZM30.0002 19.28V17.405H16.0002V19.28H30.0002Z" fill="#898989"/>
</g>
<defs>
<clipPath id="clip0_11_87">
<rect width="32" height="30" fill="white" transform="translate(0.000244141 0.529968)"/>
</clipPath>
</defs>
</svg>
