<svg width="24" height="24" viewBox="0 0 24 24" fill="none" xmlns="http://www.w3.org/2000/svg">
<g id="emojione-monotone:letter-p" clip-path="url(#clip0_28_138)">
<path id="Vector" d="M12.5788 8.44913H10.5298V11.6528H12.5788C13.0978 11.6528 13.5013 11.5223 13.7893 11.2616C14.0773 11.001 14.2209 10.5878 14.2209 10.0215C14.2209 9.45525 14.0769 9.05175 13.7893 8.81063C13.5017 8.5695 13.0978 8.44913 12.5788 8.44913Z" fill="#FFD233"/>
<path id="Vector_2" d="M11.9995 0.75C5.78651 0.75 0.749512 5.787 0.749512 12C0.749512 18.213 5.78651 23.25 11.9995 23.25C18.2129 23.25 23.2499 18.213 23.2499 12C23.2499 5.787 18.2129 0.75 11.9995 0.75ZM15.5238 12.7309C14.8866 13.2626 13.9769 13.5278 12.7949 13.5278H10.5295V17.4405H8.27089V6.5595H12.9426C14.0196 6.5595 14.8784 6.84 15.5189 7.401C16.159 7.962 16.4796 8.83087 16.4796 10.0069C16.4793 11.2909 16.1609 12.1991 15.5238 12.7309Z" fill="#FFD233"/>
</g>
<defs>
<clipPath id="clip0_28_138">
<rect width="24" height="24" fill="white"/>
</clipPath>
</defs>
</svg>
