<svg width="14" height="11" viewBox="0 0 14 11" fill="none" xmlns="http://www.w3.org/2000/svg">
<path id="Vector" fill-rule="evenodd" clip-rule="evenodd" d="M1.16646 0C0.935743 6.16403e-05 0.71022 0.0857122 0.518402 0.246124C0.326583 0.406537 0.177082 0.634509 0.0887972 0.901219C0.000512328 1.16793 -0.0225923 1.4614 0.0224048 1.74454C0.0674019 2.02768 0.178481 2.28777 0.341597 2.49193L6.17514 9.79107C6.39393 10.0647 6.69063 10.2185 7 10.2185C7.30937 10.2185 7.60607 10.0647 7.82486 9.79107L13.6584 2.49193C13.8215 2.28777 13.9326 2.02768 13.9776 1.74454C14.0226 1.4614 13.9995 1.16793 13.9112 0.901219C13.8229 0.634509 13.6734 0.406537 13.4816 0.246124C13.2898 0.0857122 13.0643 6.16403e-05 12.8335 0H1.16646Z" fill="#699BF7"/>
</svg>
