<svg width="34" height="32" viewBox="0 0 34 32" fill="none" xmlns="http://www.w3.org/2000/svg">
<g id="Group">
<path id="Vector" d="M1 1H3.73171L4.90244 6M4.90244 6L8.80488 22.6667H29.0976L33 6H4.90244Z" stroke="#898989" stroke-width="2" stroke-linecap="round" stroke-linejoin="round"/>
<path id="Vector_2" d="M8.80487 31C10.098 31 11.1463 29.8807 11.1463 28.5C11.1463 27.1193 10.098 26 8.80487 26C7.51172 26 6.46341 27.1193 6.46341 28.5C6.46341 29.8807 7.51172 31 8.80487 31Z" stroke="#898989" stroke-width="2" stroke-linecap="round" stroke-linejoin="round"/>
<path id="Vector_3" d="M29.0976 31C30.3907 31 31.439 29.8807 31.439 28.5C31.439 27.1193 30.3907 26 29.0976 26C27.8044 26 26.7561 27.1193 26.7561 28.5C26.7561 29.8807 27.8044 31 29.0976 31Z" stroke="#898989" stroke-width="2" stroke-linecap="round" stroke-linejoin="round"/>
</g>
</svg>
