<svg width="32" height="31" viewBox="0 0 32 31" fill="none" xmlns="http://www.w3.org/2000/svg">
<g id="bi:instagram" clip-path="url(#clip0_11_27)">
<path id="Vector" d="M16.0002 0.529968C11.6582 0.529968 11.1122 0.548718 9.40624 0.619968C7.70024 0.694968 6.53824 0.946218 5.52024 1.31747C4.45243 1.694 3.48523 2.28464 2.68624 3.04809C1.8724 3.79752 1.24246 4.70417 0.840244 5.70497C0.444244 6.65747 0.174244 7.74872 0.0962441 9.34247C0.0202441 10.9456 0.000244141 11.4556 0.000244141 15.5318C0.000244141 19.6043 0.0202441 20.1143 0.0962441 21.7137C0.176244 23.3112 0.444244 24.4006 0.840244 25.355C1.25024 26.3412 1.79624 27.1775 2.68624 28.0118C3.57424 28.8462 4.46624 29.36 5.51824 29.7425C6.53824 30.1137 7.69824 30.3668 9.40224 30.44C11.1102 30.5112 11.6542 30.53 16.0002 30.53C20.3462 30.53 20.8882 30.5112 22.5962 30.44C24.2982 30.365 25.4642 30.1137 26.4822 29.7425C27.5494 29.3657 28.5159 28.7751 29.3142 28.0118C30.2042 27.1775 30.7502 26.3412 31.1602 25.355C31.5542 24.4006 31.8242 23.3112 31.9042 21.7137C31.9802 20.1143 32.0002 19.6043 32.0002 15.53C32.0002 11.4556 31.9802 10.9456 31.9042 9.34434C31.8242 7.74872 31.5542 6.65747 31.1602 5.70497C30.7581 4.70414 30.1281 3.79749 29.3142 3.04809C28.5155 2.28436 27.5482 1.69368 26.4802 1.31747C25.4602 0.946218 24.2962 0.693093 22.5942 0.619968C20.8862 0.548718 20.3442 0.529968 15.9962 0.529968H16.0022H16.0002ZM14.5662 3.23372H16.0022C20.2742 3.23372 20.7802 3.24684 22.4662 3.31997C24.0262 3.38559 24.8742 3.63122 25.4382 3.83559C26.1842 4.10747 26.7182 4.43372 27.2782 4.95872C27.8382 5.48372 28.1842 5.98247 28.4742 6.68372C28.6942 7.21059 28.9542 8.00559 29.0242 9.46809C29.1022 11.0487 29.1182 11.5231 29.1182 15.5262C29.1182 19.5293 29.1022 20.0056 29.0242 21.5862C28.9542 23.0487 28.6922 23.8418 28.4742 24.3706C28.2177 25.0219 27.8083 25.6108 27.2762 26.0937C26.7162 26.6187 26.1842 26.9431 25.4362 27.215C24.8762 27.4212 24.0282 27.665 22.4662 27.7325C20.7802 27.8037 20.2742 27.8206 16.0022 27.8206C11.7302 27.8206 11.2222 27.8037 9.53624 27.7325C7.97624 27.665 7.13024 27.4212 6.56624 27.215C5.87124 26.9748 5.2425 26.5917 4.72624 26.0937C4.19375 25.61 3.78369 25.0206 3.52624 24.3687C3.30824 23.8418 3.04624 23.0468 2.97624 21.5843C2.90024 20.0037 2.88424 19.5293 2.88424 15.5225C2.88424 11.5175 2.90024 11.045 2.97624 9.46434C3.04824 8.00184 3.30824 7.20684 3.52824 6.67809C3.81824 5.97872 4.16624 5.47809 4.72624 4.95309C5.28624 4.42809 5.81824 4.10372 6.56624 3.83184C7.13024 3.62559 7.97624 3.38184 9.53624 3.31434C11.0122 3.25059 11.5842 3.23184 14.5662 3.22997V3.23372ZM24.5422 5.72372C24.2901 5.72372 24.0404 5.77028 23.8075 5.86074C23.5745 5.95119 23.3629 6.08378 23.1846 6.25093C23.0063 6.41807 22.8649 6.6165 22.7684 6.83489C22.6719 7.05327 22.6222 7.28734 22.6222 7.52372C22.6222 7.7601 22.6719 7.99416 22.7684 8.21255C22.8649 8.43093 23.0063 8.62937 23.1846 8.79651C23.3629 8.96366 23.5745 9.09624 23.8075 9.1867C24.0404 9.27716 24.2901 9.32372 24.5422 9.32372C25.0515 9.32372 25.5398 9.13408 25.8999 8.79651C26.26 8.45895 26.4622 8.00111 26.4622 7.52372C26.4622 7.04633 26.26 6.58849 25.8999 6.25093C25.5398 5.91336 25.0515 5.72372 24.5422 5.72372ZM16.0022 7.82747C14.9124 7.81153 13.83 7.999 12.8182 8.37898C11.8064 8.75896 10.8853 9.32385 10.1085 10.0408C9.33182 10.7577 8.71497 11.6123 8.29393 12.5548C7.87288 13.4974 7.65604 14.509 7.65604 15.5309C7.65604 16.5528 7.87288 17.5644 8.29393 18.507C8.71497 19.4495 9.33182 20.3041 10.1085 21.021C10.8853 21.738 11.8064 22.3028 12.8182 22.6828C13.83 23.0628 14.9124 23.2503 16.0022 23.2343C18.1593 23.2028 20.2167 22.3773 21.7302 20.9361C23.2437 19.4948 24.092 17.5534 24.092 15.5309C24.092 13.5084 23.2437 11.567 21.7302 10.1257C20.2167 8.68451 18.1593 7.85902 16.0022 7.82747ZM16.0022 10.5293C17.4169 10.5293 18.7736 11.0562 19.774 11.994C20.7743 12.9318 21.3362 14.2037 21.3362 15.53C21.3362 16.8562 20.7743 18.1281 19.774 19.0659C18.7736 20.0037 17.4169 20.5306 16.0022 20.5306C14.5876 20.5306 13.2309 20.0037 12.2305 19.0659C11.2302 18.1281 10.6682 16.8562 10.6682 15.53C10.6682 14.2037 11.2302 12.9318 12.2305 11.994C13.2309 11.0562 14.5876 10.5293 16.0022 10.5293Z" fill="#898989"/>
</g>
<defs>
<clipPath id="clip0_11_27">
<rect width="32" height="30" fill="white" transform="translate(0.000244141 0.529968)"/>
</clipPath>
</defs>
</svg>
