<svg width="24" height="25" viewBox="0 0 24 25" fill="none" xmlns="http://www.w3.org/2000/svg">
<g id="ic:round-double-arrow">
<path id="Vector" d="M20.08 12.1432L16.04 6.4397C15.7 5.95516 15.15 5.66241 14.56 5.66241C13.07 5.66241 12.21 7.35831 13.07 8.57976L16 12.7287L13.07 16.8776C12.2 18.099 13.07 19.7949 14.56 19.7949C15.15 19.7949 15.71 19.5022 16.05 19.0176L20.09 13.3141C20.33 12.9608 20.33 12.4965 20.08 12.1432Z" fill="#777777"/>
<path id="Vector_2" d="M13.08 12.1432L9.05001 6.4397C8.70001 5.95516 8.15001 5.66241 7.56001 5.66241C6.07001 5.66241 5.20001 7.35831 6.07001 8.57976L9.00001 12.7287L6.07001 16.8776C5.20001 18.099 6.07001 19.7949 7.56001 19.7949C8.15001 19.7949 8.71001 19.5022 9.05001 19.0176L13.09 13.3141C13.33 12.9608 13.33 12.4965 13.08 12.1432Z" fill="#777777"/>
</g>
</svg>
