<svg width="157" height="156" viewBox="0 0 157 156" fill="none" xmlns="http://www.w3.org/2000/svg">
<g id="mingcute:user-4-fill" clip-path="url(#clip0_28_122)">
<g id="Group">
<path id="Vector" fill-rule="evenodd" clip-rule="evenodd" d="M78.5002 13C42.3705 13 13.0835 42.1005 13.0835 78C13.0835 113.899 42.3705 143 78.5002 143C114.63 143 143.917 113.899 143.917 78C143.917 42.1005 114.63 13 78.5002 13ZM55.6043 61.75C55.6043 58.7624 56.1965 55.8041 57.3472 53.044C58.4978 50.2838 60.1843 47.7759 62.3104 45.6633C64.4364 43.5508 66.9605 41.875 69.7383 40.7317C72.5162 39.5884 75.4934 39 78.5002 39C81.5069 39 84.4842 39.5884 87.262 40.7317C90.0399 41.875 92.5639 43.5508 94.69 45.6633C96.816 47.7759 98.5025 50.2838 99.6532 53.044C100.804 55.8041 101.396 58.7624 101.396 61.75C101.396 67.7837 98.9838 73.5702 94.69 77.8367C90.3962 82.1031 84.5725 84.5 78.5002 84.5C72.4278 84.5 66.6042 82.1031 62.3104 77.8367C58.0166 73.5702 55.6043 67.7837 55.6043 61.75ZM119.438 110.396C114.541 116.517 108.316 121.459 101.227 124.853C94.1383 128.248 86.3692 130.007 78.5002 130C70.6311 130.007 62.8621 128.248 55.7733 124.853C48.6845 121.459 42.4593 116.517 37.5624 110.396C48.1665 102.836 62.6366 97.5 78.5002 97.5C94.3637 97.5 108.834 102.836 119.438 110.396Z" fill="#AAAAAA"/>
</g>
</g>
<defs>
<clipPath id="clip0_28_122">
<rect width="157" height="156" fill="white"/>
</clipPath>
</defs>
</svg>
