<svg width="32" height="31" viewBox="0 0 32 31" fill="none" xmlns="http://www.w3.org/2000/svg">
<g id="pajamas:hamburger" clip-path="url(#clip0_11_25)">
<path id="Vector" fill-rule="evenodd" clip-rule="evenodd" d="M0.000244141 7.56122C0.000244141 7.18826 0.158279 6.83057 0.439584 6.56685C0.720889 6.30313 1.10242 6.15497 1.50024 6.15497H30.5002C30.8981 6.15497 31.2796 6.30313 31.5609 6.56685C31.8422 6.83057 32.0002 7.18826 32.0002 7.56122C32.0002 7.93418 31.8422 8.29186 31.5609 8.55559C31.2796 8.81931 30.8981 8.96747 30.5002 8.96747H1.50024C1.10242 8.96747 0.720889 8.81931 0.439584 8.55559C0.158279 8.29186 0.000244141 7.93418 0.000244141 7.56122ZM0.000244141 15.53C0.000244141 15.157 0.158279 14.7993 0.439584 14.5356C0.720889 14.2719 1.10242 14.1237 1.50024 14.1237H30.5002C30.8981 14.1237 31.2796 14.2719 31.5609 14.5356C31.8422 14.7993 32.0002 15.157 32.0002 15.53C32.0002 15.9029 31.8422 16.2606 31.5609 16.5243C31.2796 16.7881 30.8981 16.9362 30.5002 16.9362H1.50024C1.10242 16.9362 0.720889 16.7881 0.439584 16.5243C0.158279 16.2606 0.000244141 15.9029 0.000244141 15.53ZM1.50024 22.0925C1.10242 22.0925 0.720889 22.2406 0.439584 22.5044C0.158279 22.7681 0.000244141 23.1258 0.000244141 23.4987C0.000244141 23.8717 0.158279 24.2294 0.439584 24.4931C0.720889 24.7568 1.10242 24.905 1.50024 24.905H30.5002C30.8981 24.905 31.2796 24.7568 31.5609 24.4931C31.8422 24.2294 32.0002 23.8717 32.0002 23.4987C32.0002 23.1258 31.8422 22.7681 31.5609 22.5044C31.2796 22.2406 30.8981 22.0925 30.5002 22.0925H1.50024Z" fill="#898989"/>
</g>
<defs>
<clipPath id="clip0_11_25">
<rect width="32" height="30" fill="white" transform="translate(0.000244141 0.529968)"/>
</clipPath>
</defs>
</svg>
