<svg width="32" height="31" viewBox="0 0 32 31" fill="none" xmlns="http://www.w3.org/2000/svg">
<g id="mdi:web">
<path id="Vector" d="M21.8136 18.0394C21.9202 17.2144 22.0002 16.3894 22.0002 15.5394C22.0002 14.6894 21.9202 13.8644 21.8136 13.0394H26.3202C26.5336 13.8394 26.6669 14.6769 26.6669 15.5394C26.6669 16.4019 26.5336 17.2394 26.3202 18.0394M19.4536 24.9894C20.2536 23.6019 20.8669 22.1019 21.2936 20.5394H25.2269C23.9351 22.6248 21.8857 24.2044 19.4536 24.9894ZM19.1202 18.0394H12.8802C12.7469 17.2144 12.6669 16.3894 12.6669 15.5394C12.6669 14.6894 12.7469 13.8519 12.8802 13.0394H19.1202C19.2402 13.8519 19.3336 14.6894 19.3336 15.5394C19.3336 16.3894 19.2402 17.2144 19.1202 18.0394ZM16.0002 25.4894C14.8936 23.9894 14.0002 22.3269 13.4536 20.5394H18.5469C18.0002 22.3269 17.1069 23.9894 16.0002 25.4894ZM10.6669 10.5394H6.77357C8.05204 8.44845 10.1 6.86629 12.5336 6.08943C11.7336 7.47693 11.1336 8.97693 10.6669 10.5394ZM6.77357 20.5394H10.6669C11.1336 22.1019 11.7336 23.6019 12.5336 24.9894C10.1051 24.204 8.06003 22.6241 6.77357 20.5394ZM5.68023 18.0394C5.4669 17.2394 5.33357 16.4019 5.33357 15.5394C5.33357 14.6769 5.4669 13.8394 5.68023 13.0394H10.1869C10.0802 13.8644 10.0002 14.6894 10.0002 15.5394C10.0002 16.3894 10.0802 17.2144 10.1869 18.0394M16.0002 5.57693C17.1069 7.07693 18.0002 8.75193 18.5469 10.5394H13.4536C14.0002 8.75193 14.8936 7.07693 16.0002 5.57693ZM25.2269 10.5394H21.2936C20.8763 8.99125 20.2583 7.4968 19.4536 6.08943C21.9069 6.87693 23.9469 8.46443 25.2269 10.5394ZM16.0002 3.03943C8.6269 3.03943 2.6669 8.66443 2.6669 15.5394C2.6669 18.8546 4.07166 22.0341 6.57214 24.3783C7.81026 25.539 9.28011 26.4597 10.8978 27.0879C12.5155 27.7161 14.2493 28.0394 16.0002 28.0394C19.5365 28.0394 22.9278 26.7225 25.4283 24.3783C27.9288 22.0341 29.3336 18.8546 29.3336 15.5394C29.3336 13.8979 28.9887 12.2725 28.3186 10.7559C27.6486 9.23932 26.6664 7.86133 25.4283 6.70059C24.1902 5.53986 22.7204 4.61912 21.1027 3.99093C19.485 3.36275 17.7512 3.03943 16.0002 3.03943Z" fill="#898989"/>
</g>
</svg>
